<svg width="18" height="18" viewBox="0 0 18 18" fill="none" xmlns="http://www.w3.org/2000/svg">
<path fill-rule="evenodd" clip-rule="evenodd" d="M8.71072 2.92516C8.54039 3.10795 8.44767 3.34971 8.45207 3.59952C8.45648 3.84933 8.55768 4.08768 8.73435 4.26435C8.91102 4.44102 9.14937 4.54222 9.39917 4.54662C9.64898 4.55103 9.89075 4.4583 10.0735 4.28798L11.6806 2.68088C11.9196 2.44197 12.2032 2.25246 12.5153 2.12316C12.8275 1.99387 13.162 1.92732 13.4999 1.92732C13.8377 1.92732 14.1723 1.99387 14.4845 2.12316C14.7966 2.25246 15.0802 2.44197 15.3191 2.68088C15.558 2.91978 15.7475 3.2034 15.8768 3.51555C16.0061 3.8277 16.0727 4.16225 16.0727 4.50011C16.0727 4.83798 16.0061 5.17253 15.8768 5.48468C15.7475 5.79683 15.558 6.08045 15.3191 6.31935L12.1049 9.53356C11.8661 9.77263 11.5825 9.96229 11.2704 10.0917C10.9582 10.2211 10.6236 10.2877 10.2857 10.2877C9.94776 10.2877 9.61316 10.2211 9.301 10.0917C8.98884 9.96229 8.70525 9.77263 8.46644 9.53356C8.28365 9.36323 8.04188 9.2705 7.79207 9.27491C7.54226 9.27932 7.30392 9.38052 7.12725 9.55719C6.95058 9.73386 6.84938 9.9722 6.84497 10.222C6.84056 10.4718 6.93329 10.7136 7.10362 10.8964C7.52148 11.3143 8.01756 11.6458 8.56354 11.872C9.10952 12.0981 9.69471 12.2145 10.2857 12.2145C10.8767 12.2145 11.4618 12.0981 12.0078 11.872C12.5538 11.6458 13.0499 11.3143 13.4677 10.8964L16.6819 7.68218C17.5259 6.83824 18 5.69362 18 4.50011C18 3.30661 17.5259 2.16199 16.6819 1.31805C15.838 0.474118 14.6934 0 13.4999 0C12.3064 0 11.1618 0.474118 10.3178 1.31805L8.71072 2.92516V2.92516ZM2.68088 15.3191C2.4418 15.0803 2.25214 14.7967 2.12274 14.4846C1.99333 14.1724 1.92673 13.8378 1.92673 13.4999C1.92673 13.162 1.99333 12.8274 2.12274 12.5152C2.25214 12.203 2.4418 11.9195 2.68088 11.6806L5.89508 8.46644C6.13389 8.22737 6.41748 8.0377 6.72964 7.9083C7.0418 7.7789 7.3764 7.7123 7.71432 7.7123C8.05224 7.7123 8.38684 7.7789 8.699 7.9083C9.01116 8.0377 9.29475 8.22737 9.53356 8.46644C9.71635 8.63677 9.95812 8.7295 10.2079 8.72509C10.4577 8.72068 10.6961 8.61948 10.8728 8.44281C11.0494 8.26614 11.1506 8.0278 11.155 7.77799C11.1594 7.52818 11.0667 7.28641 10.8964 7.10362C10.4785 6.68572 9.98244 6.35422 9.43646 6.12805C8.89047 5.90188 8.30529 5.78547 7.71432 5.78547C7.12335 5.78547 6.53816 5.90188 5.99218 6.12805C5.4462 6.35422 4.95012 6.68572 4.53226 7.10362L1.31805 10.3178C0.474118 11.1618 -8.8923e-09 12.3064 0 13.4999C8.8923e-09 14.6934 0.474118 15.838 1.31805 16.6819C2.16199 17.5259 3.30661 18 4.50011 18C5.69362 18 6.83824 17.5259 7.68218 16.6819L9.28928 15.0748C9.45961 14.8921 9.55233 14.6503 9.54793 14.4005C9.54352 14.1507 9.44232 13.9123 9.26565 13.7357C9.08898 13.559 8.85063 13.4578 8.60082 13.4534C8.35102 13.449 8.10925 13.5417 7.92646 13.712L6.31935 15.3191C6.08054 15.5582 5.79695 15.7479 5.48479 15.8773C5.17263 16.0067 4.83803 16.0733 4.50011 16.0733C4.1622 16.0733 3.82759 16.0067 3.51544 15.8773C3.20328 15.7479 2.91969 15.5582 2.68088 15.3191V15.3191Z" fill="#F4A734"/>
</svg>
