<svg width="18" height="18" viewBox="0 0 18 18" fill="none" xmlns="http://www.w3.org/2000/svg">
<path fill-rule="evenodd" clip-rule="evenodd" d="M1.6875 16.0312C1.6875 16.1865 1.8135 16.3125 1.96875 16.3125H4.5V14.9062C4.5 14.6825 4.58889 14.4679 4.74713 14.3096C4.90536 14.1514 5.11997 14.0625 5.34375 14.0625H8.15625C8.38003 14.0625 8.59464 14.1514 8.75287 14.3096C8.91111 14.4679 9 14.6825 9 14.9062V16.3125H11.5312C11.6058 16.3125 11.6774 16.2829 11.7301 16.2301C11.7829 16.1774 11.8125 16.1058 11.8125 16.0312V1.96875C11.8125 1.89416 11.7829 1.82262 11.7301 1.76988C11.6774 1.71713 11.6058 1.6875 11.5312 1.6875H1.96875C1.89416 1.6875 1.82262 1.71713 1.76988 1.76988C1.71713 1.82262 1.6875 1.89416 1.6875 1.96875V16.0312ZM1.96875 18C1.44661 18 0.945846 17.7926 0.576633 17.4234C0.207421 17.0542 0 16.5534 0 16.0312L0 1.96875C0 0.882 0.882 0 1.96875 0H11.5312C12.618 0 13.5 0.882 13.5 1.96875V16.0312C13.5 16.1269 13.4933 16.2202 13.4798 16.3125H16.0312C16.1058 16.3125 16.1774 16.2829 16.2301 16.2301C16.2829 16.1774 16.3125 16.1058 16.3125 16.0312V9.32062C16.3125 9.27436 16.3012 9.2288 16.2794 9.18798C16.2576 9.14716 16.2261 9.11235 16.1876 9.08662L15.0007 8.29575C14.9072 8.23488 14.8267 8.15606 14.7639 8.06386C14.701 7.97167 14.6571 7.86792 14.6346 7.75862C14.6121 7.64933 14.6115 7.53666 14.6329 7.42714C14.6542 7.31762 14.6971 7.21342 14.759 7.12057C14.8209 7.02773 14.9006 6.94809 14.9935 6.88625C15.0863 6.82442 15.1906 6.78162 15.3001 6.76034C15.4096 6.73906 15.5223 6.73972 15.6316 6.76227C15.7409 6.78483 15.8446 6.82884 15.9368 6.89175L17.1236 7.68262C17.6715 8.04825 18 8.6625 18 9.32062V16.0312C18 16.5534 17.7926 17.0542 17.4234 17.4234C17.0542 17.7926 16.5534 18 16.0312 18H12.0938C12.0189 18.0001 11.9444 17.9903 11.8721 17.9707C11.7608 17.9899 11.6471 18 11.5312 18H8.15625C7.93247 18 7.71786 17.9111 7.55963 17.7529C7.40139 17.5946 7.3125 17.38 7.3125 17.1562V15.75H6.1875V17.1562C6.1875 17.38 6.09861 17.5946 5.94037 17.7529C5.78214 17.9111 5.56753 18 5.34375 18H1.96875ZM3.375 4.21875C3.375 3.99497 3.46389 3.78036 3.62213 3.62213C3.78036 3.46389 3.99497 3.375 4.21875 3.375H4.78125C5.00503 3.375 5.21964 3.46389 5.37787 3.62213C5.53611 3.78036 5.625 3.99497 5.625 4.21875C5.625 4.44253 5.53611 4.65714 5.37787 4.81537C5.21964 4.9736 5.00503 5.0625 4.78125 5.0625H4.21875C3.99497 5.0625 3.78036 4.9736 3.62213 4.81537C3.46389 4.65714 3.375 4.44253 3.375 4.21875V4.21875ZM4.21875 6.75C3.99497 6.75 3.78036 6.83889 3.62213 6.99713C3.46389 7.15536 3.375 7.36997 3.375 7.59375C3.375 7.81753 3.46389 8.03214 3.62213 8.19037C3.78036 8.3486 3.99497 8.4375 4.21875 8.4375H4.78125C5.00503 8.4375 5.21964 8.3486 5.37787 8.19037C5.53611 8.03214 5.625 7.81753 5.625 7.59375C5.625 7.36997 5.53611 7.15536 5.37787 6.99713C5.21964 6.83889 5.00503 6.75 4.78125 6.75H4.21875ZM3.375 10.9687C3.375 10.745 3.46389 10.5304 3.62213 10.3721C3.78036 10.2139 3.99497 10.125 4.21875 10.125H4.78125C5.00503 10.125 5.21964 10.2139 5.37787 10.3721C5.53611 10.5304 5.625 10.745 5.625 10.9687C5.625 11.1925 5.53611 11.4071 5.37787 11.5654C5.21964 11.7236 5.00503 11.8125 4.78125 11.8125H4.21875C3.99497 11.8125 3.78036 11.7236 3.62213 11.5654C3.46389 11.4071 3.375 11.1925 3.375 10.9687ZM8.71875 10.125C8.49497 10.125 8.28036 10.2139 8.12213 10.3721C7.96389 10.5304 7.875 10.745 7.875 10.9687C7.875 11.1925 7.96389 11.4071 8.12213 11.5654C8.28036 11.7236 8.49497 11.8125 8.71875 11.8125H9.28125C9.50503 11.8125 9.71964 11.7236 9.87787 11.5654C10.0361 11.4071 10.125 11.1925 10.125 10.9687C10.125 10.745 10.0361 10.5304 9.87787 10.3721C9.71964 10.2139 9.50503 10.125 9.28125 10.125H8.71875ZM7.875 7.59375C7.875 7.36997 7.96389 7.15536 8.12213 6.99713C8.28036 6.83889 8.49497 6.75 8.71875 6.75H9.28125C9.50503 6.75 9.71964 6.83889 9.87787 6.99713C10.0361 7.15536 10.125 7.36997 10.125 7.59375C10.125 7.81753 10.0361 8.03214 9.87787 8.19037C9.71964 8.3486 9.50503 8.4375 9.28125 8.4375H8.71875C8.49497 8.4375 8.28036 8.3486 8.12213 8.19037C7.96389 8.03214 7.875 7.81753 7.875 7.59375ZM8.71875 3.375C8.49497 3.375 8.28036 3.46389 8.12213 3.62213C7.96389 3.78036 7.875 3.99497 7.875 4.21875C7.875 4.44253 7.96389 4.65714 8.12213 4.81537C8.28036 4.9736 8.49497 5.0625 8.71875 5.0625H9.28125C9.50503 5.0625 9.71964 4.9736 9.87787 4.81537C10.0361 4.65714 10.125 4.44253 10.125 4.21875C10.125 3.99497 10.0361 3.78036 9.87787 3.62213C9.71964 3.46389 9.50503 3.375 9.28125 3.375H8.71875Z" fill="#F4A734"/>
</svg>
