<svg width="18" height="14" viewBox="0 0 18 14" fill="none" xmlns="http://www.w3.org/2000/svg">
<path fill-rule="evenodd" clip-rule="evenodd" d="M1.96887 0C1.44673 0 0.945975 0.215104 0.576766 0.59799C0.207556 0.980877 0.000136698 1.50018 0.000136698 2.04167L0.000136698 2.90033C-4.55658e-05 2.91083 -4.55658e-05 2.92133 0.000136698 2.93183L0.000136698 11.9583C0.000136698 13.0853 0.88213 14 1.96887 14H16.0313C16.5534 14 17.0542 13.7849 17.4234 13.402C17.7926 13.0191 18 12.4998 18 11.9583V2.04167C18 1.50018 17.7926 0.980877 17.4234 0.59799C17.0542 0.215104 16.5534 0 16.0313 0H1.96887ZM16.3125 2.415V2.04167C16.3125 1.96431 16.2829 1.89013 16.2301 1.83543C16.1774 1.78073 16.1059 1.75 16.0313 1.75H1.96887C1.89428 1.75 1.82274 1.78073 1.77 1.83543C1.71726 1.89013 1.68762 1.96431 1.68762 2.04167V2.415L9.00007 6.86L16.3125 2.415ZM1.68762 4.445V11.9595C1.68762 12.1205 1.81362 12.2512 1.96887 12.2512H16.0313C16.1059 12.2512 16.1774 12.2204 16.2301 12.1657C16.2829 12.111 16.3125 12.0369 16.3125 11.9595V4.44383L9.42756 8.62983C9.29797 8.70881 9.15038 8.75046 9.00007 8.75046C8.84975 8.75046 8.70217 8.70881 8.57257 8.62983L1.68762 4.44383V4.445Z" fill="#F4A734"/>
</svg>
