<svg width="16" height="18" viewBox="0 0 16 18" fill="none" xmlns="http://www.w3.org/2000/svg">
<path fill-rule="evenodd" clip-rule="evenodd" d="M12.352 3.54026C12.9236 4.09476 13.377 4.75311 13.6864 5.47768C13.9958 6.20226 14.155 6.97887 14.155 7.76317C14.155 8.54746 13.9958 9.32408 13.6864 10.0487C13.377 10.7732 12.9236 11.4316 12.352 11.9861L8 16.2066L3.648 11.9849C3.07649 11.4303 2.62314 10.772 2.31384 10.0474C2.00454 9.32283 1.84535 8.54624 1.84535 7.76197C1.84535 6.97771 2.00454 6.20112 2.31384 5.47655C2.62314 4.75198 3.07649 4.09362 3.648 3.53906C4.21951 2.9845 4.898 2.5446 5.64472 2.24447C6.39143 1.94435 7.19176 1.78988 8 1.78988C8.80824 1.78988 9.60857 1.94435 10.3553 2.24447C11.102 2.5446 11.7805 2.9857 12.352 3.54026ZM13.6566 13.252C14.7755 12.1664 15.5375 10.7832 15.8462 9.27737C16.155 7.77154 15.9966 6.21068 15.3911 4.7922C14.7856 3.37371 13.7602 2.1613 12.4446 1.3083C11.129 0.455291 9.58228 0 8 0C6.41772 0 4.87098 0.455291 3.55537 1.3083C2.23976 2.1613 1.21438 3.37371 0.608902 4.7922C0.00342142 6.21068 -0.154966 7.77154 0.153771 9.27737C0.462507 10.7832 1.2245 12.1664 2.34339 13.252L6.69415 17.4749C6.8656 17.6414 7.06917 17.7734 7.29323 17.8635C7.5173 17.9536 7.75746 18 8 18C8.24254 18 8.4827 17.9536 8.70677 17.8635C8.93083 17.7734 9.1344 17.6414 9.30585 17.4749L13.6566 13.252ZM8 10.1517C8.65284 10.1517 9.27894 9.90004 9.74057 9.45211C10.2022 9.00417 10.4615 8.39664 10.4615 7.76317C10.4615 7.12969 10.2022 6.52216 9.74057 6.07423C9.27894 5.62629 8.65284 5.37464 8 5.37464C7.34716 5.37464 6.72106 5.62629 6.25943 6.07423C5.7978 6.52216 5.53846 7.12969 5.53846 7.76317C5.53846 8.39664 5.7978 9.00417 6.25943 9.45211C6.72106 9.90004 7.34716 10.1517 8 10.1517Z" fill="#F4A734"/>
</svg>
