<svg width="18" height="18" viewBox="0 0 18 18" fill="none" xmlns="http://www.w3.org/2000/svg">
<path d="M18 2.1297C17.3273 2.49875 16.6126 2.73904 15.8808 2.84225C16.653 2.27695 17.231 1.38444 17.5064 0.332151C16.7795 0.860063 15.985 1.23241 15.1569 1.43335C14.6502 0.769451 13.9931 0.308209 13.2708 0.109484C12.5485 -0.0892414 11.7943 -0.0162748 11.1061 0.318915C10.4179 0.654104 9.82743 1.23604 9.41139 1.98921C8.99535 2.74238 8.77292 3.632 8.77294 4.54264C8.7721 4.89172 8.80525 5.23967 8.87166 5.57906C7.40326 5.48751 5.96681 5.0179 4.65517 4.20057C3.34352 3.38325 2.18587 2.23641 1.25704 0.83417C0.78452 1.83445 0.639912 3.01881 0.852703 4.14574C1.06549 5.27268 1.61966 6.25732 2.40219 6.89889C1.81629 6.87602 1.24324 6.68173 0.73053 6.33209V6.38877C0.730516 7.43758 1.02544 8.45409 1.56526 9.26582C2.10508 10.0776 2.85654 10.6345 3.69214 10.8422C3.37485 10.9497 3.04722 11.0042 2.7181 11.0041C2.48411 11.0016 2.25072 10.9745 2.02048 10.9231C2.25656 11.8257 2.71574 12.6151 3.33396 13.1812C3.95218 13.7473 4.6986 14.0619 5.4691 14.081C4.15991 15.3421 2.54465 16.0264 0.881901 16.0243C0.587178 16.0231 0.292742 16.0015 0 15.9595C1.68835 17.294 3.65323 18.0023 5.65996 18C12.4519 18 16.1638 11.077 16.1638 5.07704C16.1638 4.88271 16.1572 4.68029 16.1506 4.48596C16.8761 3.84213 17.5024 3.04421 18 2.1297" fill="#F4A734"/>
</svg>
